<svg
              width="58"
              height="26"
              viewBox="0 0 60 26"
              fill="none"
              xmlns="http://www.w3.org/2000/svg"
            >
              <path
                fill-rule="evenodd"
                clip-rule="evenodd"
                d="M5.46873 0H5.7193C13.716 1.78887 22.1313 3.94906 30.4146 5.70374C31.6161 5.95828 33.0145 6.40327 34.0497 6.39319C34.2552 6.39121 34.6825 6.37089 34.8021 6.14245C35.3057 6.59768 36.6545 7.05092 37.3091 6.58133C37.5351 6.6725 37.0713 6.9168 37.2464 6.95727C37.6555 7.23592 37.6899 6.66771 37.9986 6.64343C38.2639 6.95248 38.3679 6.95016 38.688 6.7062C38.7023 6.87901 38.7446 7.04834 38.8134 7.20752C39.0919 7.16275 39.7777 7.40705 39.8788 7.01954C39.9753 7.38293 40.1507 7.38294 40.3803 7.709C43.2037 7.81041 46.072 7.8674 48.3403 8.52365C46.3509 8.36112 43.9347 8.08279 41.6966 7.95956C48.0326 9.08277 54.8047 9.76892 61.0014 11.0309C55.661 10.2355 49.2805 9.62455 43.6396 8.58625C42.7906 8.43016 41.8441 8.1041 41.1949 8.21014C41.0043 8.2412 40.8424 8.46138 40.7559 8.46105C40.5058 8.45939 40.2709 8.01671 40.004 8.1472C39.82 8.20039 40.0853 8.30495 40.004 8.46105C39.6548 8.37119 39.363 8.22434 39.0011 8.1472C38.7069 8.54231 38.8096 9.33483 38.6251 9.83945C38.3024 9.9032 38.1221 9.58888 37.9355 9.71408C38.0374 9.94665 38.383 9.93525 38.5622 10.0902C38.4698 10.4162 38.4275 10.7543 38.4368 11.093C39.5878 11.1771 40.6963 11.6308 40.192 13.1617C45.5725 13.5472 50.3421 14.544 52.2261 18.4264C52.7081 18.3831 52.9977 18.5324 53.4797 18.4891V19.3038C53.8033 19.6198 54.5753 19.1327 54.6704 19.6176C54.1876 19.8852 53.4263 19.4194 52.7902 19.4295C53.0966 20.5677 52.7701 21.9334 51.85 22.3754C51.855 22.703 51.9936 22.979 51.7873 23.1902C51.3603 23.2621 51.3367 22.9306 51.0352 22.8764C49.0366 23.3541 46.3531 23.184 44.0781 23.0645C43.9448 23.6072 43.9888 24.1782 44.2035 24.694C45.2684 24.7809 46.7489 25.2588 47.8385 24.9446C48.324 24.805 48.5158 24.2543 48.9667 24.5687C49.0493 24.8191 48.0832 25.4317 47.5252 25.5088C47.2749 25.5277 47.0235 25.5277 46.7731 25.5088C43.9869 25.3437 40.946 24.7849 37.5596 24.3805C35.234 24.1032 32.959 23.8422 30.6023 23.5659C29.7726 23.4686 28.9102 23.4988 28.2832 23.3151C28.0744 23.254 27.7933 23.1945 27.7191 22.751C28.099 22.3131 28.4086 23.1113 29.0978 22.9392C29.3251 22.999 29.1618 22.6684 29.286 22.6253C29.7885 22.7345 29.9099 23.1136 30.4143 23.0014C30.9419 22.884 30.9031 22.2388 31.1036 21.7479C30.6122 21.7489 30.1243 21.6641 29.6621 21.4972C29.5209 21.0487 29.7178 20.4921 29.8501 20.1183C28.2678 18.7544 25.4679 18.6087 23.2689 17.8618C22.7451 18.2154 22.4082 18.7561 22.0152 19.2407C21.4122 19.1141 20.8241 18.9251 20.2604 18.6766C20.7015 18.654 21.3505 18.9647 21.8272 19.1153C22.1662 18.722 22.4411 18.2779 22.6421 17.7992C20.7831 17.2136 18.7577 16.7947 16.8757 16.2321C16.5079 16.9094 16.2996 17.7453 16.0609 18.5512C15.6579 18.5364 15.4281 18.3484 15.0581 18.3007C15.0763 17.4624 15.1813 16.7105 15.2461 15.9188C14.7836 15.6915 14.1473 15.638 13.6792 15.4175C13.444 15.5792 13.481 16.0136 13.3654 16.2949C13.0127 16.1667 12.3954 16.3038 12.0491 16.1694C11.923 15.8567 11.987 15.3541 11.8611 15.0412C10.6086 14.6223 9.40821 14.1514 7.66162 14.2266C7.37207 14.4593 7.47448 15.084 7.28551 15.4175C6.74902 15.4386 6.55427 15.2697 6.15735 15.3547C5.57229 15.4801 5.22658 16.2165 4.77829 16.2949C4.26095 16.3853 3.75419 16.0508 3.27402 15.7934C3.08682 15.1314 2.85657 14.4823 2.58473 13.8503C2.0489 13.9917 1.14769 13.7434 0.516216 13.5997C0.616643 13.3658 0.576506 12.9914 0.641585 12.7221C0.776205 12.8377 1.10061 12.7646 1.33104 12.7847C1.03636 12.1571 0.093692 11.8538 0.328079 10.9045C0.339146 10.7265 -0.0817263 10.9802 0.0142418 10.7165C0.0537191 10.5053 0.352194 10.5532 0.578322 10.5286C1.03537 9.62753 1.4944 8.72814 2.01999 7.89614C1.82789 5.68524 1.55369 3.55693 1.39314 1.31482C1.68452 1.08968 2.37826 1.2015 2.77204 1.25221C3.10091 0.885184 3.59116 0.552516 4.08834 1.00147C4.13789 1.21884 3.99485 1.2423 4.02557 1.44018C5.24673 2.65456 5.90959 5.04303 6.72077 6.89318C7.02602 7.58957 7.37653 8.3327 7.78633 9.21227C8.07308 9.82772 8.45745 11.1026 8.91449 11.4062C9.50236 11.7966 10.5719 11.6315 11.3591 11.72C11.5996 11.7312 11.3819 11.6685 11.4219 11.5317C11.8776 11.6093 12.3387 11.6513 12.801 11.6572C12.8211 11.8875 12.9554 12.0041 12.9889 12.2213C14.2112 12.2573 15.6067 12.7021 16.6869 12.472C16.8508 12.517 16.9003 12.6765 17.063 12.7226C18.7041 12.7249 20.5187 13.3668 22.0144 13.3503C22.2107 13.3645 22.4068 13.3209 22.5786 13.2249C22.5752 13.2741 22.585 13.3233 22.607 13.3674C22.6291 13.4115 22.6626 13.4489 22.704 13.4757C24.2808 13.6539 25.7523 13.9372 27.342 14.1024C27.2571 13.0269 25.8924 12.9438 25.6498 11.8462C25.0413 11.5561 24.3657 11.3331 23.7696 11.0312C23.5309 10.427 23.9625 9.97852 24.3335 9.7775C25.1316 9.98794 25.9586 10.6364 26.9661 10.5299C27.598 10.4638 28.066 10.1064 28.6583 10.091C29.519 10.0715 30.3795 10.1345 31.2281 10.2792C32.0326 10.4212 32.703 11.1216 33.5472 11.1566C34.1139 11.1638 34.6801 11.1219 35.2395 11.0312C35.3784 11.0087 35.4872 10.8563 35.6156 10.8431C35.8405 10.8203 36.0759 11.1899 36.2424 10.8431C36.2513 10.5208 36.0867 10.3721 35.9919 10.1538C36.0837 9.82789 36.4953 9.82178 36.6185 9.52693C36.0343 9.30642 36.457 8.30875 36.4932 7.77209C35.7608 7.42009 34.5758 7.73245 34.1113 7.08247C33.9253 7.02796 33.8021 7.3504 33.7352 7.20785C33.5806 7.03474 33.8343 6.88954 33.798 6.64376C23.8873 4.9165 14.9347 2.23353 5.3422 0.187972C5.33196 0.115129 5.35608 0.0764818 5.40481 0.0626069C5.45931 0.0744997 5.4651 0.0386515 5.46873 0ZM36.6823 9.15083C36.5759 8.83551 36.8805 8.93164 36.9961 8.83699C37.1308 8.61631 37.1027 8.2331 37.1843 7.95923C36.9481 8.00763 36.8846 7.88292 36.6828 7.8968C36.7178 8.3033 36.2994 8.99375 36.6823 9.15083ZM37.7479 8.58674C38.139 8.71112 37.9056 9.08822 38.1866 9.27619C38.1141 9.30108 38.0494 9.34427 37.9986 9.40157C38.1473 9.50266 38.4001 9.50067 38.5625 9.5897C38.6555 9.16024 38.6525 8.63498 38.7506 8.21064C38.4626 8.04992 38.1065 8.2914 37.9358 8.08526C37.8516 8.23144 37.8321 8.44172 37.748 8.58724L37.7479 8.58674ZM4.3404 9.27669C4.36305 9.56343 4.44866 9.84164 4.59114 10.0915C5.42066 9.99339 5.53265 10.6125 6.28355 10.593C6.27925 9.49769 5.32073 8.64406 4.3404 9.27669ZM3.52575 12.5986C3.64913 12.4088 3.7783 12.2244 3.90169 12.0345C3.2575 11.6224 3.52822 10.3606 4.15243 10.1543C4.02029 9.99389 4.05448 9.667 3.90169 9.52743C3.31465 10.1465 2.90683 11.6845 3.52575 12.5986ZM36.369 10.0915C36.5341 10.0728 36.4185 10.3347 36.6197 10.2796C36.5568 10.0704 36.7066 10.0742 36.8703 10.0915C36.9446 9.44814 36.4681 9.87132 36.369 10.0915ZM38.1859 11.1571C38.176 10.7712 38.3212 10.5401 38.3113 10.1543C38.088 10.0696 37.8571 10.0066 37.6218 9.96614C37.8065 10.3718 37.7612 10.8832 38.1866 11.1571H38.1859ZM0.830879 11.9093C0.800982 11.5839 0.685688 11.344 0.45477 11.2197C0.3849 11.645 0.635474 11.7491 0.830879 11.9093ZM26.8422 12.2852C26.9121 11.9648 26.5716 12.054 26.4035 11.9714C26.4294 12.1964 26.6028 12.2727 26.8419 12.2852H26.8422ZM3.77682 12.9749C4.16135 13.6225 5.13557 13.3924 5.53166 12.9121C5.57527 12.5968 5.42545 12.475 5.46906 12.1599C5.14812 12.4045 4.63937 12.3427 4.27813 12.1599C4.13922 12.4602 3.91491 12.6746 3.77649 12.9749H3.77682ZM14.0558 12.536C13.8769 12.5287 13.4777 12.5986 13.8678 12.5986C14.6151 12.5986 15.7046 13.0599 16.3125 12.8495C15.6541 12.733 14.4263 12.5512 14.0555 12.536H14.0558ZM17.0017 13.0374C18.2682 13.2522 19.8141 13.4174 21.0758 13.6015C21.4822 13.6605 21.9876 13.9031 22.2666 13.6015C20.4516 13.3901 18.7302 13.0849 16.8764 12.9121C16.8831 12.9886 16.8949 13.0604 17.0017 13.0374ZM31.5431 14.1028C32.0185 14.0146 32.5013 13.9727 32.9848 13.9775C33.1237 13.7616 33.3568 13.6394 33.3607 13.2882C32.5578 13.2162 31.3091 12.9621 31.5428 14.1028H31.5431ZM25.8387 14.3539C26.158 14.1745 26.7695 14.6899 27.2178 14.2915C25.6577 14.1382 24.1731 13.9096 22.6424 13.7272C23.4683 14.1752 24.9565 13.9618 25.8387 14.3539ZM41.6958 15.1687H42.5104C42.6203 15.028 42.5405 14.6975 42.6359 14.542H41.6958V15.1687ZM42.8239 15.0434C43.1007 15.0488 43.3792 15.0558 43.388 14.7928C43.3925 14.5376 43.1567 14.5229 42.8867 14.542C42.9016 14.7436 42.7765 14.807 42.8247 15.043L42.8239 15.0434ZM45.5191 14.8556C45.4162 15.136 45.3734 15.4349 45.3937 15.733C46.2738 15.9183 47.3456 15.912 48.3395 15.9837C47.8258 15.3328 46.5427 14.9114 45.5199 14.8552L45.5191 14.8556ZM42.6373 15.7952C42.9359 15.9779 43.207 16.5197 43.7027 16.2967C43.5732 16.1337 43.5705 15.8446 43.5773 15.5443H42.7C42.7134 15.6631 42.6287 15.6828 42.6373 15.7952ZM50.4718 17.3621C50.6441 17.5871 50.5093 18.1188 50.8481 18.1769C50.6664 17.2067 50.0106 16.6317 49.3436 16.4847C49.5088 16.4622 49.5693 16.3342 49.5318 16.1086C49.3338 15.8864 49.0704 15.7328 48.7795 15.6699C48.9337 16.1428 49.1264 16.576 49.281 17.0489C49.8286 17.0022 50.1419 17.1903 50.4713 17.3621H50.4718ZM45.7712 17.9888H46.4605C46.5113 17.1652 46.257 16.6464 46.1466 15.9834H45.4572C45.4739 16.6627 45.5793 17.3368 45.7707 17.9888H45.7712ZM46.7112 18.0516H47.9649C48.163 17.4153 48.1409 16.7308 47.9021 16.1086C47.3205 16.1469 46.8647 16.0599 46.3351 16.046C46.455 16.7141 46.7502 17.4175 46.7107 18.0516H46.7112ZM48.2782 17.1115C48.4292 17.1371 48.4143 16.9969 48.5921 17.0489C48.5852 16.7524 48.5431 16.4578 48.4667 16.1712H48.0898C48.1771 16.4599 48.199 16.8142 48.2777 17.1115H48.2782ZM44.6429 16.9234C44.8789 17.1051 44.772 17.63 45.1442 17.6756C45.1524 17.3122 45.0261 17.0835 45.019 16.7353C44.9444 16.7229 44.8678 16.7345 44.8001 16.7683C44.7325 16.8021 44.6773 16.8564 44.6424 16.9234H44.6429ZM48.1529 18.1143H48.529C48.4812 17.7741 48.6061 17.6067 48.5916 17.2995H48.2156C48.2297 17.6067 48.1046 17.7741 48.1524 18.1143H48.1529ZM48.2156 18.8038C48.4489 18.8073 48.3962 18.525 48.4036 18.3025H48.0898C48.1413 18.4597 47.9679 18.8421 48.2151 18.8038H48.2156ZM46.1466 18.6155C46.1326 18.4969 46.2173 18.4771 46.2094 18.3647H45.8333C45.7895 18.597 45.9324 18.6419 46.1466 18.6155ZM46.3974 18.7409C46.8433 19.026 47.0219 19.5788 47.7137 19.6183C47.6949 19.2411 47.7159 18.8629 47.7763 18.4901C47.3432 18.4425 46.8653 18.4406 46.46 18.3647C46.5054 18.5567 46.396 18.5934 46.3974 18.7412V18.7409ZM33.2978 21.3107C33.2943 21.3906 33.2174 21.3974 33.235 21.4987C32.6632 21.6512 32.0712 21.7146 31.48 21.6866C31.2845 22.0976 31.1497 22.6389 31.3547 23.1283C31.89 23.2246 32.0547 22.9506 32.5454 23.0029V23.2535C33.075 23.2099 33.6467 23.5262 33.9245 23.1909C34.1723 23.4857 34.7504 23.4516 35.178 23.567C35.1659 23.5082 35.1713 23.4471 35.1936 23.3913C35.2159 23.3355 35.2541 23.2875 35.3034 23.2532C35.6372 23.421 35.794 23.7652 36.4316 23.6294C36.643 23.3321 36.6712 22.6853 36.5569 22.2505C35.4355 21.9724 34.3074 21.701 33.2978 21.311V21.3107ZM37.121 23.7553C37.5482 23.7857 37.939 23.7796 37.9358 23.3794C37.786 23.3414 37.4811 23.4583 37.4345 23.3168C37.6454 23.0054 38.0126 22.8496 38.1238 22.4393C37.6626 22.4618 37.3689 22.3166 36.9329 22.3138C36.8036 22.8002 36.871 23.318 37.1203 23.7551L37.121 23.7553ZM39.0014 22.6273C38.9264 23.1422 38.6757 23.2104 38.3747 23.5675V23.8186C39.4873 23.9621 41.0382 24.492 42.1353 24.0695C42.5421 23.9127 42.6842 23.4418 43.2635 23.6935C43.0357 24.0505 42.6492 24.249 42.3234 24.5082C42.7229 24.521 43.1208 24.5629 43.5142 24.6336C43.7785 24.2702 43.6883 23.554 43.7022 22.9413C43.1558 22.9738 42.6075 22.9315 42.0725 22.8158C42.0791 23.0731 42.0829 23.3278 41.9472 23.4426C41.339 23.3823 40.5972 23.4557 40.1302 23.2545V22.6904C39.7006 22.7221 39.447 22.5788 39.0014 22.6273Z"
                fill="black"
              />
</svg>